# xmcd CD database file
#
# Track frame offsets:
#	187
#	19615
#	42017
#	62277
#	83315
#	104082
#	119825
#	139505
#	158357
#
# Disc length: 2361 seconds
#
# Revision: 0
# Processed by: cddbd v1.5PL3 Copyright (c) Steve Scherf et al.
# Submitted via: CDex 1.51
#
DISCID=61093709
DTITLE=阿川泰子 - LADY SEPTEMBER
DYEAR=1900
DGENRE=Jazz
TTITLE0=VELAS(SEPTEMBER)
TTITLE1=WHEN YOU SMILED AT ME
TTITLE2=VOO DOO
TTITLE3=IF YOU NEVER COME TO ME
TTITLE4=VOCE(TODAY)
TTITLE5=SEABIAD
TTITLE6=UNTIL YOU TELL ME
TTITLE7=I'M WAITING
TTITLE8=SUMMER
EXTD=
EXTT0=
EXTT1=
EXTT2=
EXTT3=
EXTT4=
EXTT5=
EXTT6=
EXTT7=
EXTT8=
PLAYORDER=
